<svg version="1.1" id="Layer_1" xmlns="http://www.w3.org/2000/svg" xmlns:xlink="http://www.w3.org/1999/xlink" x="0px" y="0px"
	 width="100%" viewBox="0 0 512 512" enable-background="new 0 0 512 512" xml:space="preserve">
<path fill="#000000" opacity="1.000000" stroke="none"
	d="
M291.000000,513.000000
	C194.023544,513.000000 97.547081,513.000000 1.035313,513.000000
	C1.035313,342.398529 1.035313,171.797028 1.035313,1.097768
	C171.559799,1.097768 342.119690,1.097768 512.839783,1.097768
	C512.839783,171.666550 512.839783,342.333252 512.839783,513.000000
	C439.130341,513.000000 365.315155,513.000000 291.000000,513.000000
M256.346985,78.817223
	C248.176315,61.464710 236.624771,46.737179 220.986130,35.650131
	C205.763794,24.858252 189.095123,16.925989 170.423630,14.008959
	C162.849548,12.825669 155.245193,11.665703 147.609787,11.097879
	C141.131027,10.616073 134.558228,10.618205 128.081863,11.117338
	C122.301781,11.562808 118.331879,15.816485 118.180794,21.321877
	C117.895256,31.726624 117.878922,42.265224 119.209976,52.559517
	C121.449112,69.876823 126.848572,86.386993 135.342621,101.751686
	C143.260147,116.073502 153.869705,128.067581 166.174683,137.983765
	C154.366547,141.664078 142.033493,144.185562 130.852524,149.250381
	C101.802734,162.409500 80.524445,184.048553 65.905899,212.403641
	C53.949574,235.594925 48.871059,260.530670 47.127823,286.202057
	C45.966309,303.306854 47.327827,320.392975 51.004795,337.214661
	C55.907440,359.643677 64.590973,380.493622 76.960709,399.845337
	C89.217896,419.020935 104.850479,435.077515 122.637413,449.046600
	C142.224304,464.429260 164.004501,476.277130 187.291367,484.745087
	C206.009842,491.551849 225.469894,496.337006 244.657120,501.822479
	C248.684525,502.973907 253.077408,504.242462 257.092194,503.749451
	C265.243744,502.748596 273.366852,500.999176 281.298981,498.820312
	C311.513062,490.520935 340.972595,480.396606 368.062622,464.090240
	C390.370331,450.662567 409.912048,434.066589 426.259644,414.005493
	C441.254974,395.603821 451.994019,374.660217 459.008636,351.869629
	C463.679169,336.695007 466.265289,321.181305 466.958893,305.367157
	C467.689362,288.711487 466.241272,272.164062 462.937622,255.845795
	C459.075653,236.769608 452.709351,218.505768 442.339294,201.951218
	C430.821747,183.564758 416.063324,168.248734 397.394775,156.855042
	C381.777893,147.323837 364.963776,141.101608 347.331482,137.250824
	C366.496002,123.680016 378.867676,105.069862 386.969879,83.394669
	C391.274445,71.879044 394.436432,60.041611 395.004578,47.667004
	C395.406921,38.903957 395.735809,30.136038 395.931793,21.366592
	C395.962494,19.993927 395.355560,18.453178 394.624512,17.243259
	C390.949371,11.160408 384.787170,9.679871 378.523285,10.135460
	C366.763306,10.990788 354.969208,12.111588 343.355804,14.096295
	C318.262787,18.384647 296.383789,29.790516 278.911469,48.079678
	C270.245209,57.151108 264.206665,68.732918 256.346985,78.817223
z"/>
<path fill="#F5B3D1" opacity="1.000000" stroke="none"
	d="
M347.007538,137.837173
	C364.963776,141.101608 381.777893,147.323837 397.394775,156.855042
	C416.063324,168.248734 430.821747,183.564758 442.339294,201.951218
	C452.709351,218.505768 459.075653,236.769608 462.937622,255.845795
	C466.241272,272.164062 467.689362,288.711487 466.958893,305.367157
	C466.265289,321.181305 463.679169,336.695007 459.008636,351.869629
	C451.994019,374.660217 441.254974,395.603821 426.259644,414.005493
	C409.912048,434.066589 390.370331,450.662567 368.062622,464.090240
	C340.972595,480.396606 311.513062,490.520935 281.298981,498.820312
	C273.366852,500.999176 265.243744,502.748596 257.092194,503.749451
	C253.077408,504.242462 248.684525,502.973907 244.657120,501.822479
	C225.469894,496.337006 206.009842,491.551849 187.291367,484.745087
	C164.004501,476.277130 142.224304,464.429260 122.637413,449.046600
	C104.850479,435.077515 89.217896,419.020935 76.960709,399.845337
	C64.590973,380.493622 55.907440,359.643677 51.004795,337.214661
	C47.327827,320.392975 45.966309,303.306854 47.127823,286.202057
	C48.871059,260.530670 53.949574,235.594925 65.905899,212.403641
	C80.524445,184.048553 101.802734,162.409500 130.852524,149.250381
	C142.033493,144.185562 154.366547,141.664078 166.941681,137.982758
	C175.873016,142.306229 183.846588,147.051041 192.243774,150.862518
	C207.023712,157.571075 222.950348,159.983246 238.736328,162.360687
	C233.258667,168.127884 227.508591,173.262039 222.708908,179.168488
	C205.052612,200.896133 195.645386,225.896225 194.186859,253.873001
	C193.836548,260.592529 197.849350,266.524567 204.091766,268.438385
	C208.521973,269.796631 215.044373,267.463318 217.337418,262.728973
	C218.942154,259.415833 219.617371,255.430069 219.821884,251.696182
	C221.499084,221.074356 236.107620,197.274231 259.026489,178.171143
	C266.767212,171.719223 275.736389,166.741135 284.525085,160.981720
	C285.550751,160.708237 286.186584,160.481323 286.841614,160.385712
	C307.536255,157.365158 326.858612,150.701691 344.253510,138.866287
	C345.040588,138.330780 346.083679,138.171616 347.007538,137.837173
z"/>
<path fill="#95C11F" opacity="1.000000" stroke="none"
	d="
M347.169495,137.544006
	C346.083679,138.171616 345.040588,138.330780 344.253510,138.866287
	C326.858612,150.701691 307.536255,157.365158 286.841614,160.385712
	C286.186584,160.481323 285.550751,160.708237 284.074158,160.940460
	C281.426422,161.183914 279.613525,161.468857 277.794098,161.519363
	C269.215637,161.757553 260.635406,161.931519 251.832977,161.866806
	C246.759430,159.090271 244.084656,155.086075 244.044632,149.642975
	C243.923309,133.144562 245.813599,116.866287 250.204056,100.946526
	C252.223328,93.624733 254.706497,86.430885 256.979309,79.179016
	C264.206665,68.732918 270.245209,57.151108 278.911469,48.079678
	C296.383789,29.790516 318.262787,18.384647 343.355804,14.096295
	C354.969208,12.111588 366.763306,10.990788 378.523285,10.135460
	C384.787170,9.679871 390.949371,11.160408 394.624512,17.243259
	C395.355560,18.453178 395.962494,19.993927 395.931793,21.366592
	C395.735809,30.136038 395.406921,38.903957 395.004578,47.667004
	C394.436432,60.041611 391.274445,71.879044 386.969879,83.394669
	C378.867676,105.069862 366.496002,123.680016 347.169495,137.544006
z"/>
<path fill="#D1D700" opacity="1.000000" stroke="none"
	d="
M256.663147,78.998123
	C254.706497,86.430885 252.223328,93.624733 250.204056,100.946526
	C245.813599,116.866287 243.923309,133.144562 244.044632,149.642975
	C244.084656,155.086075 246.759430,159.090271 251.366104,161.933228
	C247.048080,162.201523 242.974106,162.141815 238.900131,162.082108
	C222.950348,159.983246 207.023712,157.571075 192.243774,150.862518
	C183.846588,147.051041 175.873016,142.306229 167.353790,137.907928
	C153.869705,128.067581 143.260147,116.073502 135.342621,101.751686
	C126.848572,86.386993 121.449112,69.876823 119.209976,52.559517
	C117.878922,42.265224 117.895256,31.726624 118.180794,21.321877
	C118.331879,15.816485 122.301781,11.562808 128.081863,11.117338
	C134.558228,10.618205 141.131027,10.616073 147.609787,11.097879
	C155.245193,11.665703 162.849548,12.825669 170.423630,14.008959
	C189.095123,16.925989 205.763794,24.858252 220.986130,35.650131
	C236.624771,46.737179 248.176315,61.464710 256.663147,78.998123
z"/>
<path fill="#ED6E98" opacity="1.000000" stroke="none"
	d="
M238.736328,162.360687
	C242.974106,162.141815 247.048080,162.201523 251.588928,162.194809
	C260.635406,161.931519 269.215637,161.757553 277.794098,161.519363
	C279.613525,161.468857 281.426422,161.183914 283.693237,161.048248
	C275.736389,166.741135 266.767212,171.719223 259.026489,178.171143
	C236.107620,197.274231 221.499084,221.074356 219.821884,251.696182
	C219.617371,255.430069 218.942154,259.415833 217.337418,262.728973
	C215.044373,267.463318 208.521973,269.796631 204.091766,268.438385
	C197.849350,266.524567 193.836548,260.592529 194.186859,253.873001
	C195.645386,225.896225 205.052612,200.896133 222.708908,179.168488
	C227.508591,173.262039 233.258667,168.127884 238.736328,162.360687
z"/>
</svg>
