<?xml version="1.0" encoding="UTF-8"?>
<!DOCTYPE svg PUBLIC "-//W3C//DTD SVG 1.1//EN" "http://www.w3.org/Graphics/SVG/1.1/DTD/svg11.dtd">
<svg xmlns="http://www.w3.org/2000/svg" version="1.1" width="115px" height="112px" style="shape-rendering:geometricPrecision; text-rendering:geometricPrecision; image-rendering:optimizeQuality; fill-rule:evenodd; clip-rule:evenodd" xmlns:xlink="http://www.w3.org/1999/xlink">
<g><path style="opacity:1" fill="#fdfdfd" d="M -0.5,-0.5 C 37.8333,-0.5 76.1667,-0.5 114.5,-0.5C 114.5,36.8333 114.5,74.1667 114.5,111.5C 76.1667,111.5 37.8333,111.5 -0.5,111.5C -0.5,74.1667 -0.5,36.8333 -0.5,-0.5 Z"/></g>
<g><path style="opacity:1" fill="#0e0e0e" d="M 55.5,2.5 C 57.9032,2.39297 59.7365,3.39297 61,5.5C 68.5852,17.6681 75.9185,30.0015 83,42.5C 83.8249,44.7008 83.3249,46.5341 81.5,48C 65.1667,48.6667 48.8333,48.6667 32.5,48C 30.0522,44.8584 30.2189,41.6917 33,38.5C 40.2746,26.2676 47.7746,14.2676 55.5,2.5 Z"/></g>
<g><path style="opacity:1" fill="#f9f9f9" d="M 56.5,14.5 C 62.0585,22.5991 67.3918,30.9324 72.5,39.5C 62.1667,40.8333 51.8333,40.8333 41.5,39.5C 46.7629,31.3047 51.7629,22.9713 56.5,14.5 Z"/></g>
<g><path style="opacity:1" fill="#0d0d0d" d="M 9.5,55.5 C 23.504,55.3334 37.504,55.5001 51.5,56C 52,56.5 52.5,57 53,57.5C 53.8229,71.7415 53.6562,85.9082 52.5,100C 45.0998,101.134 37.5998,101.634 30,101.5C 23.1667,101.333 16.3333,101.167 9.5,101C 9,100.5 8.5,100 8,99.5C 7.33333,85.5 7.33333,71.5 8,57.5C 8.71719,56.9558 9.21719,56.2891 9.5,55.5 Z"/></g>
<g><path style="opacity:1" fill="#0c0c0c" d="M 78.5,55.5 C 96.5642,55.0689 105.731,63.7355 106,81.5C 102.768,96.2107 93.601,102.711 78.5,101C 65.4032,96.5512 59.5699,87.3845 61,73.5C 63.6834,64.318 69.5167,58.318 78.5,55.5 Z"/></g>
<g><path style="opacity:1" fill="#fefffe" d="M 15.5,63.5 C 25.5,63.5 35.5,63.5 45.5,63.5C 45.5,73.5 45.5,83.5 45.5,93.5C 35.5,93.5 25.5,93.5 15.5,93.5C 15.5,83.5 15.5,73.5 15.5,63.5 Z"/></g>
<g><path style="opacity:1" fill="#f8f8f8" d="M 79.5,63.5 C 94.0422,63.2055 100.209,70.2055 98,84.5C 93.5535,92.9203 86.7202,95.7536 77.5,93C 68.4833,87.1168 66.3167,79.2835 71,69.5C 73.3218,66.6047 76.1552,64.6047 79.5,63.5 Z"/></g>
</svg>
