<?xml version="1.0" encoding="UTF-8"?>
<!DOCTYPE svg PUBLIC "-//W3C//DTD SVG 1.1//EN" "http://www.w3.org/Graphics/SVG/1.1/DTD/svg11.dtd">
<svg xmlns="http://www.w3.org/2000/svg" version="1.1" width="110px" height="88px" style="shape-rendering:geometricPrecision; text-rendering:geometricPrecision; image-rendering:optimizeQuality; fill-rule:evenodd; clip-rule:evenodd" xmlns:xlink="http://www.w3.org/1999/xlink">
<g><path style="opacity:1" fill="#fdfdfd" d="M -0.5,-0.5 C 36.1667,-0.5 72.8333,-0.5 109.5,-0.5C 109.5,28.8333 109.5,58.1667 109.5,87.5C 72.8333,87.5 36.1667,87.5 -0.5,87.5C -0.5,58.1667 -0.5,28.8333 -0.5,-0.5 Z"/></g>
<g><path style="opacity:1" fill="#242424" d="M 99.5,6.5 C 68.4563,6.18181 37.4563,6.51514 6.5,7.5C 6.61071,6.88258 6.94404,6.38258 7.5,6C 38.3361,5.16939 69.0027,5.33606 99.5,6.5 Z"/></g>
<g><path style="opacity:1" fill="#020202" d="M 99.5,6.5 C 101.411,6.5743 102.578,7.5743 103,9.5C 103.979,33.2546 103.646,56.9212 102,80.5C 101.25,81.1258 100.416,81.6258 99.5,82C 68.8333,82.6667 38.1667,82.6667 7.5,82C 7,81.5 6.5,81 6,80.5C 4.85225,68.4254 4.35225,56.2587 4.5,44C 4.66667,32.5 4.83333,21 5,9.5C 5.27842,8.5842 5.77842,7.91753 6.5,7.5C 37.4563,6.51514 68.4563,6.18181 99.5,6.5 Z"/></g>
<g><path style="opacity:1" fill="#bababa" d="M 95.5,55.5 C 96.4959,41.3431 96.8293,27.0097 96.5,12.5C 68.1667,12.5 39.8333,12.5 11.5,12.5C 11.171,26.3435 11.5043,40.0102 12.5,53.5C 12.2172,54.2891 11.7172,54.9558 11,55.5C 10.5001,40.8371 10.3334,26.1705 10.5,11.5C 39.5,11.5 68.5,11.5 97.5,11.5C 97.6666,26.837 97.4999,42.1703 97,57.5C 96.2828,56.9558 95.7828,56.2891 95.5,55.5 Z"/></g>
<g><path style="opacity:1" fill="#fcfcfc" d="M 95.5,55.5 C 91.4915,52.814 87.8249,49.6473 84.5,46C 82.5,45.3333 80.5,45.3333 78.5,46C 74.3333,50.1667 70.1667,54.3333 66,58.5C 58.1917,50.2044 50.8584,41.5378 44,32.5C 42.2349,30.2256 40.0682,28.5589 37.5,27.5C 34.5935,28.8974 32.0935,30.8974 30,33.5C 24.6741,40.656 18.8408,47.3227 12.5,53.5C 11.5043,40.0102 11.171,26.3435 11.5,12.5C 39.8333,12.5 68.1667,12.5 96.5,12.5C 96.8293,27.0097 96.4959,41.3431 95.5,55.5 Z"/></g>
<g><path style="opacity:1" fill="#0c0c0c" d="M 75.5,19.5 C 84.0362,19.1996 87.8695,23.1996 87,31.5C 84.5647,36.2238 80.7314,37.7238 75.5,36C 71.2746,33.3372 69.7746,29.5039 71,24.5C 72.7073,22.9625 74.2073,21.2959 75.5,19.5 Z"/></g>
</svg>
