<?xml version="1.0" encoding="UTF-8"?>
<!DOCTYPE svg PUBLIC "-//W3C//DTD SVG 1.1//EN" "http://www.w3.org/Graphics/SVG/1.1/DTD/svg11.dtd">
<svg xmlns="http://www.w3.org/2000/svg" version="1.1" width="92px" height="92px" style="shape-rendering:geometricPrecision; text-rendering:geometricPrecision; image-rendering:optimizeQuality; fill-rule:evenodd; clip-rule:evenodd" xmlns:xlink="http://www.w3.org/1999/xlink">
<g><path style="opacity:1" fill="#fefefe" d="M -0.5,-0.5 C 30.1667,-0.5 60.8333,-0.5 91.5,-0.5C 91.5,30.1667 91.5,60.8333 91.5,91.5C 60.8333,91.5 30.1667,91.5 -0.5,91.5C -0.5,60.8333 -0.5,30.1667 -0.5,-0.5 Z"/></g>
<g><path style="opacity:1" fill="#181818" d="M 12.5,8.5 C 35.5024,8.33337 58.5024,8.50004 81.5,9C 82.3333,9.83333 83.1667,10.6667 84,11.5C 84.6667,16.8333 84.6667,22.1667 84,27.5C 80.8442,30.3988 78.1775,30.0655 76,26.5C 75.502,23.5184 75.3354,20.5184 75.5,17.5C 67.5,17.5 59.5,17.5 51.5,17.5C 51.5,36.5 51.5,55.5 51.5,74.5C 55.3076,74.1632 58.9743,74.6632 62.5,76C 64.22,79.0859 63.5534,81.4192 60.5,83C 51.1667,83.6667 41.8333,83.6667 32.5,83C 30.3517,80.9251 30.0183,78.5918 31.5,76C 35.0257,74.6632 38.6924,74.1632 42.5,74.5C 42.5,55.5 42.5,36.5 42.5,17.5C 34.5,17.5 26.5,17.5 18.5,17.5C 18.8368,21.3076 18.3368,24.9743 17,28.5C 14.4082,29.9817 12.0749,29.6483 10,27.5C 9.33333,22.1667 9.33333,16.8333 10,11.5C 11.045,10.6266 11.8783,9.62656 12.5,8.5 Z"/></g>
</svg>
