<svg width="6" height="11" viewBox="0 0 6 11" fill="none" xmlns="http://www.w3.org/2000/svg">
<path d="M1.785 1.205L1.86 0.8H5.475L5.4 1.205L4.56 1.28C4.46 1.29 4.385 1.31 4.335 1.34C4.285 1.37 4.245 1.435 4.215 1.535C4.185 1.625 4.15 1.785 4.11 2.015L2.73 9.785C2.67 10.135 2.65 10.34 2.67 10.4C2.69 10.46 2.78 10.5 2.94 10.52L3.75 10.61L3.675 11H0.06L0.135 10.61L0.975 10.52C1.085 10.51 1.16 10.495 1.2 10.475C1.25 10.445 1.29 10.385 1.32 10.295C1.35 10.195 1.385 10.025 1.425 9.785L2.805 2.015C2.865 1.665 2.885 1.46 2.865 1.4C2.845 1.34 2.755 1.3 2.595 1.28L1.785 1.205Z" fill="#706E6E"/>
</svg>
