<svg width="10" height="15" viewBox="0 0 10 15" fill="none" xmlns="http://www.w3.org/2000/svg">
<path d="M3.373 1.308L3.478 0.72H9.232L9.127 1.308L7.951 1.455C7.727 1.483 7.58 1.546 7.51 1.644C7.454 1.728 7.384 2.008 7.3 2.484L5.41 13.236C5.326 13.712 5.298 13.999 5.326 14.097C5.354 14.181 5.473 14.237 5.683 14.265L6.817 14.412L6.712 15H0.958L1.063 14.412L2.239 14.265C2.477 14.237 2.624 14.181 2.68 14.097C2.736 13.999 2.806 13.712 2.89 13.236L4.78 2.484C4.864 2.008 4.892 1.728 4.864 1.644C4.836 1.546 4.717 1.483 4.507 1.455L3.373 1.308Z" fill="black"/>
</svg>
