<svg width="11" height="14" viewBox="0 0 11 14" fill="none" xmlns="http://www.w3.org/2000/svg">
<path d="M0.200994 14V0.181818H5.73366C6.75024 0.181818 7.59813 0.332504 8.27734 0.633878C8.95656 0.935251 9.46709 1.35357 9.80895 1.88885C10.1508 2.41963 10.3217 3.03137 10.3217 3.72408C10.3217 4.26385 10.2138 4.7384 9.99787 5.14773C9.78196 5.55256 9.48509 5.88542 9.10724 6.14631C8.7339 6.4027 8.30658 6.58487 7.82528 6.69283V6.82777C8.35156 6.85026 8.84411 6.9987 9.30291 7.27308C9.76622 7.54747 10.1418 7.93205 10.4297 8.42685C10.7176 8.91714 10.8615 9.50189 10.8615 10.1811C10.8615 10.9143 10.6793 11.5688 10.315 12.1445C9.95514 12.7158 9.42211 13.1679 8.71591 13.5007C8.00971 13.8336 7.13932 14 6.10476 14H0.200994ZM3.12251 11.6115H5.50426C6.31842 11.6115 6.91217 11.4563 7.28551 11.146C7.65885 10.8311 7.84553 10.4128 7.84553 9.89098C7.84553 9.50864 7.75331 9.17128 7.56889 8.87891C7.38447 8.58653 7.12133 8.35713 6.77947 8.1907C6.44212 8.02427 6.03954 7.94105 5.57173 7.94105H3.12251V11.6115ZM3.12251 5.96413H5.28835C5.68868 5.96413 6.04403 5.89441 6.3544 5.75497C6.66927 5.61103 6.91667 5.40862 7.09659 5.14773C7.28101 4.88684 7.37322 4.57422 7.37322 4.20987C7.37322 3.71058 7.19555 3.308 6.8402 3.00213C6.48935 2.69626 5.99006 2.54332 5.34233 2.54332H3.12251V5.96413Z" fill="black"/>
</svg>
