<svg width="15" height="15" viewBox="0 0 15 15" fill="none" xmlns="http://www.w3.org/2000/svg">
<path d="M5.54785 0.76123V1.40137C5.51074 1.40137 5.45817 1.39827 5.39014 1.39209C5.3221 1.3859 5.27262 1.38281 5.2417 1.38281C4.75309 1.38281 4.4222 1.54362 4.24902 1.86523C4.07585 2.18685 3.98926 2.95068 3.98926 4.15674V5.62256V7.54297C3.98926 8.54492 4.02018 9.28402 4.08203 9.76025C4.14388 10.2365 4.24593 10.6292 4.38818 10.9385C4.69124 11.6064 5.13656 12.1167 5.72412 12.4692C6.31787 12.8156 7.03223 12.9888 7.86719 12.9888C8.49186 12.9888 9.03923 12.8991 9.50928 12.7197C9.97933 12.5404 10.3813 12.2651 10.7153 11.894C11.0493 11.5229 11.2843 11.0684 11.4204 10.5303C11.5565 9.99219 11.6245 9.09538 11.6245 7.83984C11.6245 6.33073 11.606 5.06283 11.5688 4.03613C11.5379 3.00326 11.4946 2.37858 11.439 2.16211C11.3524 1.8776 11.2163 1.67969 11.0308 1.56836C10.8514 1.45703 10.5576 1.40137 10.1494 1.40137H10.0103V0.76123C10.0845 0.76123 10.1927 0.764323 10.335 0.770508C11.1885 0.813802 11.7977 0.835449 12.1626 0.835449C12.5213 0.835449 13.1274 0.813802 13.981 0.770508C14.1294 0.764323 14.2376 0.76123 14.3057 0.76123V1.40137H14.1943C13.8294 1.40137 13.5542 1.44775 13.3687 1.54053C13.1893 1.6333 13.0594 1.78792 12.979 2.00439C12.911 2.18376 12.8615 2.6569 12.8306 3.42383C12.7996 4.18457 12.7842 5.41846 12.7842 7.12549V8.05322C12.7842 9.03044 12.7471 9.77881 12.6729 10.2983C12.5986 10.8117 12.478 11.2663 12.311 11.6621C11.9647 12.4847 11.3678 13.131 10.5205 13.6011C9.67318 14.0711 8.67432 14.3062 7.52393 14.3062C6.72607 14.3062 5.99007 14.1886 5.31592 13.9536C4.64795 13.7186 4.07894 13.3784 3.60889 12.9331C3.09554 12.4631 2.73063 11.9095 2.51416 11.2725C2.29769 10.6292 2.18945 9.73242 2.18945 8.58203C2.18945 8.13672 2.19564 7.40999 2.20801 6.40186C2.22038 5.38753 2.22656 4.59587 2.22656 4.02686V3.73926C2.22656 2.67546 2.13688 2.01986 1.95752 1.77246C1.78434 1.52507 1.44108 1.40137 0.927734 1.40137H0.760742V0.76123C1.19987 0.78597 1.61735 0.804525 2.01318 0.816895C2.40902 0.829264 2.77083 0.835449 3.09863 0.835449C3.49447 0.835449 3.89648 0.829264 4.30469 0.816895C4.71289 0.804525 5.12728 0.78597 5.54785 0.76123Z" fill="black"/>
</svg>
